<?xml version="1.0" encoding="utf-8"?>
<!-- Generator: Adobe Illustrator 21.1.0, SVG Export Plug-In . SVG Version: 6.00 Build 0)  -->
<svg version="1.1" id="Слой_1" xmlns="http://www.w3.org/2000/svg" xmlns:xlink="http://www.w3.org/1999/xlink" x="0px" y="0px"
	 viewBox="0 0 295.8 295.8" style="enable-background:new 0 0 295.8 295.8;" xml:space="preserve">
<style type="text/css">
	.st0{fill:#19C2DB;}
</style>
<g>
	<g>
		<path class="st0" d="M147.9,0C66.1,0,0,66.1,0,147.9s66.1,147.9,147.9,147.9s147.9-66.1,147.9-147.9S229.7,0,147.9,0z
			 M147.9,278.4c-71.3,0-130.5-59.2-130.5-130.5S76.6,17.4,147.9,17.4s130.5,59.2,130.5,130.5S219.3,278.4,147.9,278.4z"/>
		<path class="st0" d="M191.4,139.2h-34.8v-34.8c0-5.2-3.5-8.7-8.7-8.7s-8.7,3.5-8.7,8.7v34.8h-34.8c-5.2,0-8.7,3.5-8.7,8.7
			s3.5,8.7,8.7,8.7h34.8v34.8c0,5.2,3.5,8.7,8.7,8.7s8.7-3.5,8.7-8.7v-34.8h34.8c5.2,0,8.7-3.5,8.7-8.7
			C200.1,142.7,196.6,139.2,191.4,139.2z"/>
	</g>
</g>
</svg>
