<?xml version="1.0" encoding="UTF-8" standalone="no"?>
<svg
   xmlns:dc="http://purl.org/dc/elements/1.1/"
   xmlns:cc="http://creativecommons.org/ns#"
   xmlns:rdf="http://www.w3.org/1999/02/22-rdf-syntax-ns#"
   xmlns:svg="http://www.w3.org/2000/svg"
   xmlns="http://www.w3.org/2000/svg"
   xmlns:sodipodi="http://sodipodi.sourceforge.net/DTD/sodipodi-0.dtd"
   xmlns:inkscape="http://www.inkscape.org/namespaces/inkscape"
   version="1.1"
   viewBox="0 0 295.82 295.82"
   enable-background="new 0 0 295.82 295.82"
   id="svg10"
   sodipodi:docname="plus_icon-icons.com_69322.svg"
   inkscape:version="0.92.2 (5c3e80d, 2017-08-06)">
  <metadata
     id="metadata16">
    <rdf:RDF>
      <cc:Work
         rdf:about="">
        <dc:format>image/svg+xml</dc:format>
        <dc:type
           rdf:resource="http://purl.org/dc/dcmitype/StillImage" />
      </cc:Work>
    </rdf:RDF>
  </metadata>
  <defs
     id="defs14" />
  <sodipodi:namedview
     pagecolor="#ffffff"
     bordercolor="#666666"
     borderopacity="1"
     objecttolerance="10"
     gridtolerance="10"
     guidetolerance="10"
     inkscape:pageopacity="0"
     inkscape:pageshadow="2"
     inkscape:window-width="640"
     inkscape:window-height="480"
     id="namedview12"
     showgrid="false"
     inkscape:zoom="0.79778242"
     inkscape:cx="135.70706"
     inkscape:cy="147.91"
     inkscape:window-x="176"
     inkscape:window-y="367"
     inkscape:window-maximized="0"
     inkscape:current-layer="g6" />
  <g
     id="g8"
     style="fill:#00bfd0;fill-opacity:1">
    <g
       id="g6"
       style="fill:#00bfd0;fill-opacity:1">
      <path
         d="M147.91,0C66.124,0,0,66.124,0,147.91s66.124,147.91,147.91,147.91s147.91-66.124,147.91-147.91S229.696,0,147.91,0z     M147.91,278.419c-71.345,0-130.509-59.164-130.509-130.509S76.565,17.401,147.91,17.401S278.419,76.565,278.419,147.91    S219.255,278.419,147.91,278.419z"
         id="path2"
         style="fill:#00e7f9;fill-opacity:0.44488978" />
      <path
         d="m191.413,139.21h-34.802v-34.802c0-5.22-3.48-8.701-8.701-8.701-5.22,0-8.701,3.48-8.701,8.701v34.802h-34.802c-5.22,0-8.701,3.48-8.701,8.701 0,5.22 3.48,8.701 8.701,8.701h34.802v34.802c0,5.22 3.48,8.701 8.701,8.701 5.22,0 8.701-3.48 8.701-8.701v-34.802h34.802c5.22,0 8.701-3.48 8.701-8.701 0-5.221-3.481-8.701-8.701-8.701z"
         id="path4"
         style="fill:#00e7f9;fill-opacity:0.44488978" />
    </g>
  </g>
</svg>
